<svg version="1.2" xmlns="http://www.w3.org/2000/svg" viewBox="0 0 1878 972" width="1878" height="972">
	<style>
		.s0 { fill: #000000 } 
	</style>
	<filter id="f0">
		<feFlood flood-color="#d92121" flood-opacity="1" />
		<feBlend mode="normal" in2="SourceGraphic"/>
		<feComposite in2="SourceAlpha" operator="in" />
	</filter>
	<g filter="url(#f0)">
		<path class="s0" d="m1537.5 0.7c-6 0.4-6.1 0.4-8.9 5.1-7.7 12.4-20.5 26.6-37.9 41.9-29.1 25.5-65.3 49.1-82.7 53.9-3.6 1.1-6.1 2.3-6.4 3.3-1.2 4.7-3.9 24.1-3.4 24.6 0.3 0.4 5.2 0.1 10.9-0.6 14.8-1.7 15.5-1.7 15.1 0.3-0.1 1-1.9 11.1-3.8 22.5-1.9 11.4-4.1 24.6-4.9 29.3-0.8 4.7-3 17.7-4.9 29-1.9 11.3-5.8 34-8.6 50.5-2.8 16.5-6.2 36.5-7.6 44.5-1.4 8-3.6 21-4.9 29-1.3 8-3.6 21.2-5 29.5-6.2 35.8-10.1 58.7-13.5 79.5-0.5 3-2 12-3.4 20-1.4 8-4.8 28-7.6 44.5-2.8 16.5-6.2 36.5-7.6 44.5-6.7 38.7-7.2 56-1.7 68 2.6 5.8 6.1 9.8 11.1 12.7 7.2 4.3 11 5.3 19.7 5.3 14.5 0 26.9-3.6 48-13.9 24-11.8 50-30.4 73.8-52.8l6.8-6.4-4.6-8c-5.3-8.9-4.3-8.8-12.5-1.4-5.2 4.8-18.3 14.4-22.2 16.4-1.4 0.7-3.8 1.3-5.2 1.3-6.6 0.1-8.1-6.2-6.1-24.4 0.8-7.3 1.8-14.4 2.1-15.8 0.3-1.4 1-5 1.5-8 0.8-5.2 2.4-14.7 8.4-49.5 1.4-8.3 3.6-21.3 5-29 1.3-7.7 4.2-24.8 6.5-38 2.3-13.2 4.5-26.3 5-29 1.3-7.9 5.7-33.6 8.4-49.5 1.4-8 3.7-21 5-29 1.4-8 3.7-21 5-29 1.4-8 3.7-21.3 5.1-29.5 1.5-8.3 3-17.5 3.5-20.5 0.5-3 2-12.3 3.5-20.5 1.4-8.3 3.7-21.4 5-29.3 1.4-7.8 3.6-20.8 5.1-29 1.4-8.1 2.8-16.5 3.1-18.7 1.1-7.6-1-7 32-8.4 16.4-0.7 37-1.3 45.8-1.4l16-0.2 2.1-12.5c1.2-6.9 1.9-12.9 1.7-13.3-0.3-0.4-16.5-0.5-36.1-0.1-31.3 0.6-36.1 0.5-38.7-0.9-3.2-1.6-6.1-4.6-8.4-8.7-1.9-3.3-2.6-21.2-1.2-31 1.8-13.2 6.6-41.9 7.8-46.3 0.5-1.8 0-1.9-15.2-1z"/>
		<path class="s0" d="m1774.9 11.6c-7.4 10.9-25.6 27-45.4 40.4-15.1 10.2-39.7 23.8-50.5 28-1.9 0.7-4.8 1.9-6.5 2.6-5.5 2.3-12.9 4.4-18.4 5.1l-5.5 0.8-1.7 10.5c-1 5.8-1.8 11.7-1.8 13.2l-0.1 2.8h13c14.7 0 13.7-0.7 12 9-2.7 16.2-8 46.5-9.9 57-1 5.3-3.3 18.8-8.5 49-1.4 8-3.2 18.5-4.1 23.5-0.9 4.9-2.5 13.9-3.5 20-1 6-2.6 15-3.5 20-0.9 4.9-2.7 15.3-4 23-6.5 37.4-7.7 44.4-8.5 49-0.5 2.7-2.1 11.7-3.5 20-1.4 8.2-3.3 18.8-4.1 23.5-0.8 4.7-1.9 11-2.4 14-0.5 3-1.6 9.5-2.5 14.5-0.9 4.9-2 11.2-2.5 14-0.4 2.7-1.9 11.5-3.3 19.5-1.5 8-3.7 21-5.1 29-1.4 8-3.7 21.2-5.1 29.5-4.9 28.1-5.6 34-5.7 44.6 0 5.8 0.5 13 1.2 16 7.2 30.5 36.9 38.9 81.5 23.2 11.8-4.2 12.6-4.5 27-11.9 16.4-8.2 26.6-14.6 42.3-26.1l11.3-8.4-4.5-8.2c-2.5-4.5-5-8.3-5.5-8.5-0.6-0.2-2.8 1-4.9 2.6-11.1 8.7-24.1 15.4-28.9 15-5.9-0.5-7.8-4.1-7.6-14.1 0.1-7.7 2.1-23.7 4.3-35.2 0.5-2.8 1.6-8.8 2.4-13.5 2.3-13.4 5.6-31.7 7.2-41 0.9-4.7 2.2-12.1 2.9-16.5 0.8-4.4 1.9-10.7 2.5-14 0.6-3.3 1.7-9.6 2.5-14 0.7-4.4 2.3-13.4 3.5-20 1.1-6.6 2.8-15.7 3.6-20.3 0.7-4.5 2.1-12.1 3-17 2-11.3 2.8-15.8 5.8-33.2 2.3-13.3 5-28.8 7.6-43 1.1-6 3.5-19.2 5-28 0.6-3 3.3-18.3 6-34 2.8-15.7 5.7-32.3 6.5-37 0.9-4.7 2-11.2 2.6-14.5 1.1-6 1.7-9.3 4.3-24 0.8-4.4 2-11.2 2.6-15 0.7-3.9 1.4-7.6 1.6-8.4 0.4-1.1 2-1.2 8.2-0.7 8.5 0.8 14.1 1.6 52.2 7.6 3 0.5 10.2 1.8 16 2.9 5.8 1.1 11.8 2.1 13.5 2.3l2.9 0.3 2.2-12.3c1.2-6.7 1.8-12.5 1.4-12.7-1-0.6-18.3-4-30-6-4.7-0.8-12.3-2-17-2.9-4.7-0.8-10.7-1.7-13.5-2.1-7.9-1-12.1-2.5-16-5.7-6-5-7.8-9.7-8.3-22.3-0.4-11.5 0-15.4 4.3-40 1.5-8.3 2.9-17.1 3.2-19.6l0.5-4.6-5.8-0.7c-3.3-0.4-8-1-10.5-1.3-4.6-0.5-4.7-0.5-8 4.3z"/>
		<path class="s0" d="m1318 115c-1.9 0.5-5.6 1.2-8.2 1.5-4.6 0.6-5.3 1.2-19.5 16-8.2 8.5-15.3 15.5-15.9 15.5-0.6 0-4.5-1.5-8.6-3.4-15.2-7.1-31.6-11.7-50-14.1-13.1-1.8-21.2-1.9-31.1-0.5-15.5 2.2-18.4 3.1-21.3 6.4-1.5 1.7-7.1 7.8-12.4 13.6-41.3 45.1-82.3 95.6-112.2 138.4-26.1 37.3-43.3 66.3-56.8 96.1-1.7 3.8-3.8 8.3-4.5 10-11.5 25.2-24.1 65.5-30.4 97.5-10.6 52.7-10.6 102.4-0.2 134.7 8.4 26.1 29.1 51 49.6 59.6 16.3 6.8 32.5 9 47.6 6.6l6.9-1.2 8.3-9.6c32.2-37.5 64.2-84 82.5-119.8 2.6-5.1 5.1-9.3 5.6-9.3 0.5 0 0.6 1.7 0.2 3.7-0.4 2.1-1.1 6.3-1.6 9.3-1.8 10.6-6.1 35.6-7.7 44.5-1 5.4-1.6 14.8-1.7 23.5 0 12.9 0.2 15.1 2.3 20.4 3 7.6 8.7 13.7 15.4 16.7 6.9 3 20.9 3.1 31.2 0.2 24.5-7.1 53.8-25 83.5-51.3 12.3-10.8 30-28.2 30-29.3 0-0.8-7.1-12.8-8.6-14.5-0.1-0.2-5.3 4.2-11.5 9.7-19.9 17.9-25.8 20.5-29.6 13-2.7-5.3-1.2-19.8 7.7-71.4 2.8-16.5 5.5-32.5 6-35.5 1.5-9.6 5-30.3 6-36 1.5-8.3 5-28.8 6-35 0.5-3 1.5-9.6 2.4-14.5 3.8-22.5 4.8-28.4 5.6-33.5 0.5-3 3.2-19 6-35.5 2.8-16.5 5.5-32.5 6-35.5 0.5-3 3.2-19 6-35.5 2.8-16.5 5.8-34.1 6.6-39 0.8-5 1.9-11.5 2.4-14.5 0.5-3 3.2-19 6-35.5 2.8-16.5 6.2-36.7 7.5-44.8 1.3-8.2 2.7-15.7 3-16.8 0.5-1.6 0.2-1.9-2.2-1.8-1.5 0.1-4.4 0.5-6.3 0.9zm-143.5 105.4c10.1 1.8 27.5 7.7 27.5 9.4 0 0.4-2.3 14.3-5 30.8-2.8 16.4-6.2 36.4-7.5 44.4-1.3 8-3.1 18.8-4 24-0.9 5.2-2 12-2.5 15-0.5 3-4.3 25.7-8.5 50.5-4.2 24.7-8 47.5-8.5 50.5-5.9 37.6-25.7 87-48.3 120.5-20.6 30.6-36.9 38.4-55 26.4-9.3-6.2-17.3-20.7-23-41.9-4.3-16.1-5.8-29.9-6.4-58.1-0.5-25.8 0.8-50.3 3.7-69.4 4.3-27.7 7.5-44.3 11.6-60.5 2.6-9.8 6.8-24.6 8.4-29 3.2-9.2 6.4-18 7.6-20.7 0.8-1.7 1.4-3.4 1.4-3.7 0-0.3 1.4-3.6 3.1-7.3 19.4-43.3 38.9-67.2 62.8-77.2 11.6-4.9 27.8-6.3 42.6-3.7z"/>
		<path class="s0" d="m955.5 185.5c-3.3 0.7-14.1 2.9-24 5-9.9 2-21.1 4.3-25 5.1-3.8 0.8-9 1.9-11.5 2.3-6.1 1.1-24.5 4.8-30 6-2.5 0.6-14.2 2.8-26 5-11.8 2.2-23.4 4.5-25.8 5.1-2.3 0.5-5.3 1-6.5 1-3.8 0-5.9 2.3-6.8 7.6-1.8 9.8-2.1 13.4-1.3 13.4 0.5 0 6.3-1.1 12.8-2.5 11.3-2.3 14.3-2.4 13.1-0.6-0.2 0.5-1.2 5.3-2 10.7-2.3 14.4-3.1 19.2-6 35.9-1.4 8.2-3.2 19-4 24-0.8 4.9-1.9 11.7-2.5 15-0.6 3.3-2.2 12.5-3.5 20.5-2.9 17.4-6.1 36.4-7.5 44-0.5 3-1.9 11.1-3 18-1.2 6.9-2.5 15-3.1 18-0.5 3-1.6 9.5-2.4 14.5-0.8 4.9-3 18.4-5 30-2 11.5-4.3 25-5.1 30-0.8 4.9-1.9 11.5-2.4 14.5-0.5 3-1.4 8.6-2 12.5-2.9 17.8-13 48.6-24.1 73.5-16.3 36.4-37.8 67.6-52 75.5-11 6.1-23.8 3.1-31.4-7.3-11.2-15.4-12.3-47.8-3.6-103.7 2.1-13.4 4.1-25.3 5.1-31 0.6-3.3 2.2-13 3.5-21.5 3.5-22.3 5-31.6 8-48.5 1.5-8.3 3.1-17.5 3.5-20.5 0.5-3 2-12 3.4-20 8.2-47.7 10.5-60.6 11.6-68 0.5-3 1.4-8.2 2-11.5 0.6-3.3 1.7-9.8 2.5-14.5 0.8-4.7 2.5-15 3.9-23 5.3-30.2 7.7-44.7 8.6-50 0.5-3 1.4-8.2 1.9-11.5 1.4-8 1.4-8.8-0.4-8.1-0.8 0.3-5.3 1-10.1 1.7l-8.6 1.1-31.1 19.5c-29.3 18.3-81.7 50.1-106 64.3-10.7 6.2-10.8 6.3-10.2 9.4 0.7 3.1 3.7 13.8 4.1 14.4 0.2 0.2 3.8-1.6 8.1-4 18.3-10.3 27.4-12.2 30.1-6.5 2 4.2 1.2 10.3-13.3 94.2-1.5 8.2-3 17.5-3.5 20.5-1 6.1-4.5 26.6-8.5 49.5-1.4 8.2-3.3 19-4.1 24-0.8 4.9-1.9 11.5-2.4 14.5-0.5 3-2.1 12.2-3.5 20.5-1.5 8.2-3 18.1-3.5 22-0.5 3.8-1.2 7.9-1.4 9-0.3 1.1-1.2 11.7-2.1 23.5-4.1 52.4 4.4 92.1 25.6 121 13.6 18.5 27.5 28.5 48.1 34.4 11.1 3.2 17.9 3.9 26.2 2.7 6.2-0.9 7.4-1.4 11.4-5.3 11.1-10.7 37.5-43.9 54.3-68.3 10.7-15.5 35.9-57 35.9-59.2 0-0.2 0.7-1.2 1.6-2 1.4-1.4 1.5-1.3 1 1.8-1.4 8.4-5.7 33.2-7.1 40.9-0.9 4.7-2 11-2.5 14-1.6 9-6.9 35.5-7.4 37.1-0.2 0.8-1.2 5-2.1 9.4-4.1 19-13.2 50.6-18.7 64.5-1.6 4.1-3.5 8.8-4.1 10.5-3.6 9.1-16.5 33.4-22.7 42.8-12.5 18.9-22.8 26.8-40.5 31.2-9.3 2.3-29.3 2.3-39 0.1-24.5-5.8-50.4-19.5-68.6-36.4-6.2-5.6-17.9-19.7-17.9-21.3 0-0.5-0.6-0.8-1.2-0.7-0.7 0-17.5 16.4-37.2 36.4l-35.9 36.3 2.9 3.8c4.5 6 24.2 25.4 32 31.5 24.3 19.3 53.8 32.6 81.4 36.8 7.6 1.1 28.4 1.2 35.1 0.1 3.8-0.6 6.2-2 12.5-7.6 32-27.6 75.3-71.1 111-111.1 17.6-19.8 53.6-64.2 62.4-77 0.8-1.2 5.2-7.6 9.7-14.3 29.4-42.8 50.4-87.6 61.9-132.1 4.1-15.6 3.2-10.6 12.8-68 4.1-24.5 7.7-45.9 8-47.5 0.3-1.7 1.3-7.5 2.1-13 0.9-5.5 2-12 2.5-14.5 0.5-2.5 1.6-9.2 2.5-15 0.9-5.8 2-12.8 2.6-15.5 0.5-2.8 1.8-10.4 2.9-17 2.7-17.2 5.9-36.1 7-42.5 1.5-8.3 3.1-17.8 4-24 0.5-3 5.9-35.2 12-71.5 6.1-36.3 11.8-70.5 12.6-75.9 2.3-14.9 1.1-13.6 16.4-16.8 7.3-1.5 13.5-3 13.8-3.2 0.3-0.3 1.1-3.9 1.8-7.9 0.7-4.1 1.4-8.2 1.6-9.2 0.4-2.4-0.6-2.5-7.7-1z"/>
		<path class="s0" d="m139 237.6c-4.7 1.3-10.1 2.9-12 3.4-3.8 1.1-30.9 7.6-37.5 9-22.7 4.8-32.2 6.6-52 9.9-12.6 2.1-25.8 4.2-29.2 4.6-7.3 0.8-7.2 0.6-4.4 11 3 11.1 1.6 10.2 14.4 8.9 17.2-1.8 24.4 0.1 26.7 7.1 1.3 3.8 0.4 13-2.5 28-0.8 3.8-2.1 10.8-2.9 15.5-0.9 4.7-2.7 14.8-4.1 22.5-1.4 7.7-3 16.2-3.5 19-0.5 2.7-1.6 8.8-2.5 13.5-0.9 4.7-2 10.7-2.5 13.5-0.5 2.7-1.6 8.8-2.5 13.5-0.9 4.7-2 10.7-2.5 13.5-0.5 2.7-1.6 8.8-2.5 13.5-0.9 4.7-2 10.7-2.5 13.5-0.5 2.7-2.1 11.3-3.5 19-1.4 7.7-3 16.2-3.5 19-0.5 2.7-1.8 10.3-2.9 16.7-3.9 21.6-5.1 36.5-5.1 60.4 0 42.8 6.4 72.2 22.6 103.3 10.9 21 20.5 34.3 33.4 46.4 15.3 14.5 31.4 24.5 45.2 28.1l6.6 1.8 8.4-5.3c25.1-16 54.2-39.7 74.4-60.6 2.9-2.9 5.6-5.3 6.1-5.3 0.4 0 1.7 3 2.7 6.7 4.7 16.3 14 35.3 23.5 47.8 19.4 25.4 46.4 43.2 69 45.4l7.4 0.7 6.1-5c48.1-39.5 96.2-93.4 130.1-145.6 21.1-32.6 32.1-53.4 49-93.5 5.1-12 15.2-45 18.9-61.5 1-4.1 2.1-9.3 2.6-11.5 0.9-3.6 1.8-8.8 5.1-29 3.9-24 5-65 2.4-88.5-3-26.5-7.4-42-17.8-62.3-10.7-20.9-26.3-35.8-42.3-40.5-7.8-2.3-8-2.2-21.8 12.6-7.1 7.5-20.8 21.8-30.5 31.7-9.7 10-18.9 19.5-20.5 21.2l-2.8 3.1 7.3 6.9c19.2 18 30 45.5 36.6 92.8 1.4 10.5 1.8 19.6 1.7 47.5 0 40-0.9 50.7-7.4 89.5-12.1 72.5-38.3 129.7-65.6 143.1-15.6 7.6-32.9 2.2-42.8-13.4-5.6-9-9.6-27.1-9.6-44.2 0.1-17.7 5.7-59.5 15.5-114 1.4-8 3.7-21 5.1-29 1.4-8 3-17 3.5-20 0.6-3 1.6-9.1 2.4-13.5 0.8-4.4 1.9-10.7 2.5-14 0.6-3.3 1.7-9.6 2.5-14 0.8-4.4 1.9-10.7 2.5-14 0.6-3.3 1.7-9.6 2.5-14 0.7-4.4 2.3-13.4 3.5-20 1.1-6.6 2.8-15.7 3.6-20.3 0.7-4.5 2.1-12.1 3-17 0.8-4.8 1.9-11 2.4-13.7 0.5-2.8 2-11.5 3.5-19.5 1.4-8 3.6-20.8 4.9-28.5 1.3-7.7 2.7-15.2 3-16.8 1.8-8.3 2.8-7.4-8.8-8.2l-10.3-0.7-9.9 4.2c-5.4 2.3-11.2 4.8-12.9 5.5-1.6 0.8-5.5 2.4-8.5 3.8-3 1.3-6.6 2.8-8 3.2-1.4 0.4-4.7 1.8-7.5 3-5.9 2.7-48.7 19.2-59.5 23-4.1 1.4-14.9 5.1-24 8.1-9.1 3.1-16.8 5.9-17.3 6.3-0.4 0.4-0.3 2 0.2 3.7 0.5 1.6 1.7 5.7 2.7 9.2 1.4 4.9 2.1 6.1 3.3 5.6 5.1-2.1 23.3-6.4 27.4-6.4 10.1 0 11.5 5.4 7.6 28.5-2 12.1-2.5 14.8-5.4 31-0.9 4.9-2 11.2-2.5 14-0.5 2.7-1.6 9-2.5 14-0.9 4.9-2 11.2-2.5 14-0.5 2.7-1.6 9-2.5 14-0.9 4.9-2 11.2-2.5 14-0.5 2.7-1.6 9-2.5 14-0.9 4.9-2 11.2-2.5 14-1.1 5.9-5 27.9-8.5 47.8-9.1 50.6-10.5 62.6-10.5 88.4v19.8l-4.4 6.5c-13.8 20.6-27.9 28.9-43.3 25.6-7.9-1.7-13.5-5-20-11.8-17.1-18.2-20.5-50.1-11.4-107.3 4.4-27.2 5.8-35.7 7.5-45.5 1.8-10.5 2.8-15.7 6.1-33.5 1.4-7.7 3.2-17.6 4-22 1.6-9.2 2.8-15.5 5-27.5 0.9-4.7 2-10.8 2.5-13.5 1-5.5 3.7-20.5 5-27.5 0.4-2.5 1.5-8.6 2.5-13.5 0.9-5 2.1-11.4 2.6-14.3 0.5-2.8 1.4-7.8 2-11 0.5-3.1 1.6-9.3 2.4-13.7 0.7-4.4 2.3-13 3.4-19 2.6-13.7 3-15.8 4.1-22 0.5-2.8 2.1-11.3 3.5-19 3.9-21.3 5.6-31.7 5.1-32.2-0.4-0.4-13-2.9-19.1-3.8-1.6-0.2-6.8 0.7-11.5 2.1z"/>
		<path class="s0" d="m1777.5 600c-5.4 1.8-21.5 28.7-31.6 53-3.3 7.9-5 11-5.4 9.8-0.4-1-0.2-13 0.5-26.9 0.6-13.8 1-25.3 0.7-25.5-0.2-0.2-2.4 0.3-4.9 1.1-2.7 1-8.7 5-15 10.3-5.8 4.8-19.1 15.8-29.6 24.4l-19.1 15.7 1.2 3c0.6 1.7 1.7 3.1 2.4 3.1 0.7 0 3.5-1.6 6.2-3.5 2.6-1.9 5.8-3.5 6.9-3.5 4.1 0 4.3 2.4 3.2 31.2-2.1 57.2-3 84.3-4 114.3-0.5 17-1.3 35.6-1.6 41.2l-0.6 10.2-3.1 1c-1.8 0.5-4.4 1.2-5.9 1.5-2.5 0.6-2.8 1.1-2.8 4.5 0 4.5 0.5 5.2 3.3 4.1 2.3-0.8 4.3-1.4 20.2-5.6 5.5-1.4 12-3.2 14.5-3.9 2.5-0.7 10.6-3 18.2-5l13.6-3.7 0.5-3.6c0.2-2.1 0.2-4-0.2-4.3-0.3-0.4-2.7 0-5.4 0.9-2.6 0.8-4.9 1.3-5.2 1-0.3-0.2-0.1-13.2 0.5-28.9 0.5-15.6 1.4-44.4 2-63.9 0.6-19.5 1.5-39.3 2.1-44 2.6-21.6 12.4-49.3 21.1-60 4.7-5.8 11-6.5 16.2-1.9 8.2 7.2 10.2 22.8 8.7 67.2-4 113.4-4 114.8 2.6 121.3 3.4 3.4 5.1 3.9 13.3 3.4 10.4-0.5 32.8-17.9 46.2-35.8l4.8-6.3-2.2-3c-1.2-1.6-2.4-2.9-2.7-2.8-0.3 0-2.4 2.3-4.6 5.1-2.2 2.8-5.3 6.1-6.8 7.2l-2.9 2.1-2-2.5c-2-2.4-2-3.3-1.5-27 0.3-13.5 1.1-40.5 1.8-60 1.8-56.2 0.3-72.9-8.1-90.5-4-8.4-13.4-18.2-21-21.8-6.2-3-19.1-4.4-24.5-2.7z"/>
		<path class="s0" d="m1445.4 626.7c-6.5 5.4-14.9 12.3-18.6 15.2-3.8 3-6.8 5.9-6.8 6.4 0 1.5 16.4 26.7 17.3 26.7 0.9 0 38.7-29.9 38.7-30.7 0-0.7-15.9-24.4-17.5-26.1-0.9-1-3.5 0.6-13.1 8.5z"/>
		<path class="s0" d="m1583 647.8c-3.2 1-16.4 18.1-32.5 42.2-24.4 36.6-36.1 60.7-42 86.5-0.9 3.8-2 8.8-2.5 11-1.7 7.4-3.2 30.9-2.6 39 0.7 8.5 2.9 19.3 4.7 23.5 3.4 7.7 4.7 10 8.5 15.6 13 18.6 38.6 30.7 59.5 28 5.2-0.7 5.6-1 10.4-7.4 52.5-70.2 71.5-114.2 71.5-165.6 0-23.9-5.3-38.9-18.3-52.3-12.8-13.2-27.6-20.2-44.7-20.8-5.2-0.3-10.6-0.1-12 0.3zm-2.8 41.3c17 3.6 31 16.1 36 32.4 4.7 15.3 6.3 29 5.5 48.5-0.7 16-1.6 22.7-5.2 37.5-5.1 21.5-13.3 38-21.5 43.8-6.9 4.8-26-1-36.6-11.1-8.6-8.2-12.9-17.4-16.5-35-2.2-10.7-2.7-40.5-0.9-50.8 3.3-18.4 6.8-32.5 10-39.9 2.9-6.8 8.3-17.3 9.8-19 3.4-4 8.7-7.5 11.4-7.5 1.5 0 5.1 0.5 8 1.1z"/>
		<path class="s0" d="m1364.3 655.7c-1.5 0.3-3.4 2.6-5.7 6.7-4.3 7.7-19 23.4-28.8 30.9-8 6-16 10.7-18.3 10.7-1.2 0-1.5 1.4-1.5 5.9v5.8l5.8-0.1 5.7-0.1-0.2 8.5c-0.6 19.3-2.4 72-3.3 92.5-0.5 12.1-1.5 40.4-2.2 62.8-1.3 45.3-1 49.4 4 55.7 7.6 9.4 25 7.2 42.7-5.4 4.7-3.4 23.5-21.4 23.5-22.6 0-0.3-1.1-1.8-2.4-3.5l-2.4-2.9-6.1 5.7c-6 5.5-9.2 6.9-10.6 4.6-1.7-2.6-2.2-13.8-1.4-29.4 0.4-9.4 1.5-40.2 2.4-68.5 1-28.3 2.2-63.6 2.9-78.5l1.1-27 3.5-0.6c1.9-0.3 10.7-1.8 19.5-3.3 8.8-1.5 16.3-3 16.6-3.4 1.2-1.3 1.7-11.2 0.5-11.2-0.6 0-6.3 1-12.6 2.1-17.4 3.1-18.5 3.2-20.9 1.9-4.4-2.3-5.5-7.2-5.3-23.3 0.1-16.3 0.6-15.4-6.5-14z"/>
		<path class="s0" d="m1467.4 678c-1.1 0.4-7.7 4.9-14.5 9.9-6.8 5-19.9 14.5-29.1 21.1-9.2 6.6-16.9 12.4-17.2 12.9-0.5 0.8 2.1 7.1 2.9 7.1 0.1 0 2.9-1.6 6.1-3.5 6.5-4 7.6-4.2 9.5-1.9 1.8 2.2 1.5 18.1-2.1 110.9-2.3 57.7-2.4 72.7-0.6 78.1 5.7 17.3 24.3 16.3 47.7-2.4 4.4-3.5 11.1-10 15-14.4l7.1-8-2.4-2.6c-1.3-1.5-2.4-2.9-2.6-3.1-0.1-0.3-3.1 2.3-6.6 5.8-7.4 7.3-9.4 7.6-11.4 1.6-1.1-3.3-1.2-8.7-0.3-30 0.6-14.3 1.6-40 2.2-57 0.5-17.1 1.4-42.5 1.9-56.5 0.5-14 1.3-35.3 1.6-47.3l0.7-21.7-2.9 0.1c-1.6 0-3.8 0.4-5 0.9z"/>
		<path class="s0" d="m1082.5 685.2c-9.5 14.3-33.5 31.9-46.7 34.3-3.8 0.7-3.8 0.8-3.8 5.6 0 2.7 0 5.2 0 5.6 0 0.5 2.6 1 5.7 1.3l5.8 0.5-0.3 10c-0.3 10.8-1.7 46.6-3.2 82-4.6 111.3-4.5 110.6-1.4 118.5 2.3 5.8 8.4 10.7 15.2 12.1 14 2.9 34.3-5.5 51.1-21l4.3-4-2.2-3c-1.2-1.7-2.6-3.1-3.1-3.1-0.6 0-3.1 1.6-5.6 3.5-5.8 4.5-8.9 5.3-11.1 3.1-2.7-2.7-2.4-13.9 2.9-142.1 0.6-14.3 1.4-32.8 1.7-41l0.7-15 18.5-0.6c10.2-0.4 19.5-0.7 20.8-0.8 2-0.1 2.2-0.6 2.2-5.7v-5.6l-14.7 0.2c-18.7 0.3-17.6 0.5-21.1-2.5-4-3.3-5.4-11.2-4.5-25.8l0.6-10.7h-4.5c-4.2 0-4.7 0.3-7.3 4.2z"/>
		<path class="s0" d="m1261.5 715.7l-6.4 6.8-3.3-1.4c-14.3-5.9-26.3-9.1-36.1-9.7l-10.2-0.7-6 6.5c-16.7 17.8-37.2 43.8-48.2 61.4-16.2 25.5-22.8 45.2-25.4 75.1-1.3 14.4-0.3 36.6 2 43.8 0.5 1.6 1.7 5.7 2.6 9 4 13.9 15.6 29.7 27.1 37.1 5.7 3.7 15.2 7.1 22 8.1 4 0.5 4.8 0.3 7.5-2.3 8.4-8 27.1-36.4 31.5-48 0.9-2.4 2-4.2 2.4-3.9 0.3 0.2 0.5 7.7 0.2 16.6-0.6 19.6 0.5 25.5 5.8 31 11.5 12.1 34.6 4.9 58.7-18.4 7.6-7.3 7.6-7.3 3.8-12.1-1.5-1.9-1.6-1.9-4.8 1.1-5.6 5.2-10.6 8.5-12.1 8-3.3-1.3-3.7-7.9-2.7-40.5 1.3-37.7 2.7-77.5 4.1-111.2 0.5-13.5 1.2-33.2 1.6-43.8l0.6-19.2h-4.2c-3.9 0-4.7 0.5-10.5 6.7zm-45 35.3c8.1 3.4 9.5 4.1 10 5 0.3 0.5 0.1 12.7-0.5 27.2-3 78.9-3.2 81.8-8.7 97.8-6.7 19.6-15.5 31-23.9 31-3.5 0-9.9-4-13.7-8.5-12-14.6-19.7-53.6-16.8-85.8 3.2-36.3 12.4-58.7 27.2-66.5 3.9-2.1 5.4-2.3 13.9-1.9 5.2 0.2 10.9 1 12.5 1.7z"/>
		<path class="s0" d="m914.4 717.3c-41.5 29.8-58.8 53.2-57.2 77.1 1.1 15 6.8 25.6 22.3 41.1 10.3 10.3 25.8 22.6 28.9 22.9 0.8 0 9.1-6.9 18.6-15.4 9.5-8.5 17.8-15.6 18.4-15.8 2.2-0.5 18.4 11.9 26 19.8 4.9 5.1 8.5 10.1 10.7 14.6 3 6.2 3.3 7.8 3.3 15.4 0 11.2-3 17.6-12.9 27.6-9.9 9.9-16.1 11.4-31.6 7.5-18.6-4.7-43.2-18.4-62.5-34.8-3.4-2.9-6.7-5.3-7.2-5.3-0.5 0-6.9 5.9-14.3 13.2l-13.3 13.1 6.4 6c22.8 20.9 59.8 40.1 83.6 43.2 4.7 0.7 5.5 0.5 10-2.6 17.1-11.8 37.1-29.7 47.7-42.6 10.9-13.3 18-27.2 20.6-40.1 5.1-25.2-10.5-50.5-43.2-70.1l-3.7-2.3-6.3 6c-14 13.3-30.2 27.2-31.7 27.2-3.1 0-19.6-12.4-29-21.9-11.6-11.7-15.1-17.7-15.8-27.2-0.4-5.9-0.1-7.6 2.1-12.1 4.9-10 16.7-18.8 25.3-18.8 18.3 0 44.5 11.3 62.3 26.8l6.4 5.6 2.1-2.6c1.1-1.4 6.2-7.1 11.1-12.8 10.1-11.5 12.9-15 12.4-15.3-0.2-0.2-3.1-2.6-6.4-5.3-17.2-14.5-37.8-24.3-58.8-28-12.9-2.2-13.1-2.2-24.3 5.9z"/>
	</g>
</svg>